HIERARCHY
ROOT Hips
{
	OFFSET -0.179506 -22.333345 2.821913
	CHANNELS 6 Xposition Yposition Zposition Zrotation Yrotation Xrotation 
	JOINT LeftUpLeg
	{
		OFFSET 6.951974 -9.140623 -0.681533
		CHANNELS 3 Zrotation Yrotation Xrotation
		JOINT LeftLeg
		{
			OFFSET 3.427654 -37.519855 -0.449580
			CHANNELS 3 Zrotation Yrotation Xrotation
			JOINT LeftFoot
			{
				OFFSET -1.359570 -39.796059 -4.369333
				CHANNELS 3 Zrotation Yrotation Xrotation
				JOINT LeftToe
				{
					OFFSET 2.635814 -5.579078 11.928840
					CHANNELS 3 Zrotation Yrotation Xrotation
					End Site
					{
						OFFSET 0.000000 0.000000 0.000000
					}
				}
			}
		}
	}
	JOINT RightUpLeg
	{
		OFFSET -6.767048 -9.052170 -0.431982
		CHANNELS 3 Zrotation Yrotation Xrotation
		JOINT RightLeg
		{
			OFFSET -3.829005 -38.256897 -0.885003
			CHANNELS 3 Zrotation Yrotation Xrotation
			JOINT RightFoot
			{
				OFFSET 1.577377 -39.841461 -4.231180
				CHANNELS 3 Zrotation Yrotation Xrotation
				JOINT RightToe
				{
					OFFSET -2.537174 -4.814398 12.334795
					CHANNELS 3 Zrotation Yrotation Xrotation
					End Site
					{
						OFFSET 0.000000 0.000000 0.000000
					}
				}
			}
		}
	}
	JOINT Spine
	{
		OFFSET -0.253288 10.896323 -2.669631
		CHANNELS 3 Zrotation Yrotation Xrotation
		JOINT Spine1
		{
			OFFSET 0.548704 13.518043 0.109247
			CHANNELS 3 Zrotation Yrotation Xrotation
			JOINT Spine2
			{
				OFFSET 0.145701 5.292222 2.542457
				CHANNELS 3 Zrotation Yrotation Xrotation
				JOINT Neck
				{
					OFFSET -0.277840 21.387037 -4.285703
					CHANNELS 3 Zrotation Yrotation Xrotation
					JOINT Head
					{
						OFFSET 0.515184 6.496960 5.134897
						CHANNELS 3 Zrotation Yrotation Xrotation
						End Site
						{
							OFFSET 0.000000 0.000000 0.000000
						}
					}
				}
				JOINT LeftShoulder
				{
					OFFSET 7.884473 12.174932 -3.408961
					CHANNELS 3 Zrotation Yrotation Xrotation
					JOINT LeftArm
					{
						OFFSET 9.097692 3.046888 -0.886815
						CHANNELS 3 Zrotation Yrotation Xrotation
						JOINT LeftForeArm
						{
							OFFSET 25.961220 -1.277207 -2.745643
							CHANNELS 3 Zrotation Yrotation Xrotation
							JOINT LeftHand
							{
								OFFSET 24.923361 0.898606 -0.117091
								CHANNELS 3 Zrotation Yrotation Xrotation
								End Site
								{
									OFFSET 0.000000 0.000000 0.000000
								}
							}
						}
					}
				}
				JOINT RightShoulder
				{
					OFFSET -8.175920 11.883285 -3.861528
					CHANNELS 3 Zrotation Yrotation Xrotation
					JOINT RightArm
					{
						OFFSET -9.601238 3.255117 -0.914307
						CHANNELS 3 Zrotation Yrotation Xrotation
						JOINT RightForeArm
						{
							OFFSET -25.374195 -1.332924 -2.140099
							CHANNELS 3 Zrotation Yrotation Xrotation
							JOINT RightHand
							{
								OFFSET -25.529810 0.777228 -0.555919
								CHANNELS 3 Zrotation Yrotation Xrotation
								End Site
								{
									OFFSET 0.000000 0.000000 0.000000
								}
							}
						}
					}
				}
			}
		}
	}
}
MOTION
Frames: 13
Frame Time: 0.033333
-1.884327 -26.483009 90.775032 -151.795044 5.139504 88.007315 15.898745 -0.809392 -17.747048 -13.149505 -18.576413 39.969691 -4.583213 -5.814375 -20.964496 nan nan nan -24.623888 -8.452154 -2.409866 -2.773043 4.043520 6.432197 13.946614 -1.368700 10.544269 nan nan nan -0.109718 4.220714 5.095112 6.649019 -6.081408 1.956091 2.300765 -2.455706 1.840003 -1.035191 -7.315013 17.880562 4.044512 -11.747196 12.116517 -11.008107 6.355667 5.153780 -52.586517 -15.477999 4.604502 -7.190382 -40.485154 9.114911 -4.848976 -23.184773 -28.079415 16.022884 -13.896009 3.716880 60.331316 -7.800260 1.030494 -9.905366 27.377862 -10.888177 8.194111 11.711482 -21.714359 
-1.148490 -25.904055 90.454956 -151.425544 5.028150 88.086861 16.575925 -0.826353 -18.030679 -13.468729 -18.620505 40.393026 -4.847810 -6.082241 -21.349831 nan nan nan -25.096848 -8.494906 -2.692820 -2.634519 4.077916 6.655115 14.421496 -1.301987 10.988873 nan nan nan -0.191841 4.129332 5.047489 6.677221 -6.270616 1.997528 2.277731 -2.587312 1.782272 -1.259714 -7.677417 17.904383 4.038646 -12.040796 12.051090 -11.095539 6.268281 5.162514 -52.536121 -15.399158 4.451333 -6.938296 -40.360326 8.693099 -5.241090 -22.980460 -27.746703 16.033254 -13.891026 3.778728 60.325866 -8.175160 0.907574 -9.702430 27.085401 -10.470550 9.210135 11.214260 -21.341299 
-0.393846 -25.338516 90.132706 -151.145683 4.927720 88.160382 17.213683 -0.666347 -18.268570 -13.746538 -18.781741 40.780334 -4.966686 -6.324222 -21.754179 nan nan nan -25.554752 -8.766531 -3.117441 -2.347638 4.117171 7.095303 14.843139 -1.187420 11.454210 nan nan nan -0.225489 4.010753 5.119714 6.705079 -6.370410 1.925348 2.262545 -2.737161 1.704898 -1.388228 -7.887848 17.767234 3.981052 -12.280929 12.207460 -11.048418 6.410984 5.213029 -52.837074 -15.509723 4.223709 -6.555692 -39.942841 8.427335 -5.478146 -22.998726 -27.280014 16.045590 -14.043906 3.777699 60.200631 -8.415421 0.740967 -9.383622 26.840362 -9.860376 9.951790 11.253993 -20.840830 
0.365507 -24.761057 89.827232 -150.909875 4.796233 88.018279 17.752467 -0.344163 -18.167724 -14.032271 -19.252016 41.003545 -5.123974 -6.582728 -22.134812 nan nan nan -26.046225 -9.273106 -3.407658 -2.003335 4.027740 7.657267 15.279312 -0.998847 12.081771 nan nan nan -0.224967 3.875999 5.433518 6.675374 -6.475511 1.875326 2.183833 -2.811362 1.635210 -1.384239 -8.019536 17.666637 4.089096 -12.624061 12.328038 -11.012426 6.404468 5.305580 -52.640851 -15.549541 4.207295 -6.760762 -39.650190 8.568543 -4.780336 -23.125323 -27.541607 16.118929 -14.184460 3.575990 60.017103 -8.795426 0.665753 -8.895383 26.709332 -9.431937 9.481249 11.765598 -20.720745 
1.144323 -24.159458 89.529343 -150.735501 4.589834 87.806351 18.215856 0.019798 -17.909798 -14.278099 -19.783754 41.114850 -5.364124 -6.865267 -22.429873 nan nan nan -26.506401 -9.804925 -3.612276 -1.745822 3.979266 8.182062 15.719233 -0.892169 12.611094 nan nan nan -0.340118 3.729186 5.838360 6.635646 -6.613850 1.916707 2.167896 -2.786253 1.451371 -1.454140 -8.172662 17.709015 4.307905 -12.888177 12.331334 -11.066412 6.345557 5.399094 -52.361934 -15.320107 4.058458 -6.945843 -39.652555 8.689667 -4.033895 -23.098402 -28.149961 16.274671 -14.126704 3.475743 59.862502 -9.278000 0.472166 -8.647300 26.569219 -9.258928 9.512522 11.913042 -20.824232 
1.956411 -23.560898 89.238113 -150.582403 4.362622 87.730960 18.774169 0.248123 -17.763170 -14.433894 -20.035923 41.055303 -5.677574 -7.175543 -22.614875 nan nan nan -26.873020 -10.311430 -3.970503 -1.555118 3.739051 8.799538 15.995312 -0.588075 13.073244 nan nan nan -0.460840 3.611779 6.051559 6.602571 -6.682891 1.983447 2.202913 -2.831104 1.283895 -1.627722 -8.149325 17.680658 4.335821 -13.219845 12.346011 -11.226875 6.545229 5.417789 -52.442544 -15.283237 3.704600 -6.473788 -39.379136 8.307199 -4.635647 -23.070522 -27.992849 16.429393 -14.223756 3.612467 59.756972 -9.501049 0.092782 -8.637932 26.527187 -9.123312 9.958030 11.706742 -20.851493 
2.816194 -22.940474 88.970215 -150.355219 4.245586 87.768186 19.418789 0.444648 -17.694929 -14.572948 -20.498440 40.901565 -5.987482 -7.212224 -22.788669 nan nan nan -27.052957 -10.844633 -4.418466 -1.245606 3.569878 9.588451 16.189996 -0.442974 13.291313 nan nan nan -0.637625 3.509837 6.215918 6.656304 -6.723953 1.860620 2.317062 -3.003567 1.295714 -1.577454 -8.129530 17.429410 4.274658 -13.374430 12.426052 -11.451942 6.709482 5.451674 -52.343603 -15.092646 3.540723 -6.242668 -39.327251 7.969609 -3.962408 -22.885611 -27.878618 16.658479 -14.366572 3.509731 59.362928 -9.733701 -0.063312 -8.281832 26.410373 -8.875029 9.680483 11.824599 -20.666502 
3.695809 -22.293837 88.731247 -150.178495 4.182292 87.812433 20.130248 0.721947 -17.569730 -14.707748 -21.053247 40.702358 -6.373439 -7.266897 -22.941647 nan nan nan -27.059758 -11.388875 -4.862446 -0.950173 3.508125 10.363227 16.395318 -0.398735 13.358825 nan nan nan -0.794491 3.398275 6.259073 6.731992 -6.836253 1.946392 2.380753 -3.057263 1.161066 -1.454340 -8.048845 17.188430 4.285153 -13.701403 12.546668 -11.435630 6.767242 5.622132 -52.351110 -14.798996 3.496425 -6.111279 -39.282068 7.692235 -2.284548 -22.385543 -28.206548 16.916469 -14.438089 3.417179 58.942946 -10.023569 -0.183570 -7.817366 26.275791 -8.378501 9.025936 11.814227 -20.306156 
4.590169 -21.624958 88.508003 -150.123074 4.102578 87.761301 20.884015 1.139953 -17.256352 -14.759720 -21.515150 40.378183 -6.790460 -7.514968 -22.956740 nan nan nan -26.992314 -11.882543 -5.230086 -0.662746 3.529254 11.144056 16.362784 -0.282870 13.321744 nan nan nan -0.964163 3.309230 6.200753 6.792403 -6.915766 2.234398 2.431365 -3.052156 1.067552 -1.378519 -7.822721 16.955310 4.324762 -14.077715 12.685577 -11.310469 6.630721 5.719746 -52.390138 -14.498158 3.445128 -5.872924 -38.970249 7.358748 -1.606225 -22.258428 -28.463023 17.079964 -14.371024 3.518938 58.772945 -10.228118 -0.539975 -7.637752 26.234451 -8.279362 9.055316 11.588849 -19.854236 
5.498606 -20.943911 88.281624 -150.243815 3.962580 87.709858 21.568322 1.558898 -16.769480 -14.627508 -21.938872 39.809900 -7.190725 -7.638349 -22.837374 nan nan nan -26.892377 -12.356434 -5.774620 -0.324522 3.665292 12.092409 16.177499 -0.066184 13.264584 nan nan nan -1.042843 3.193463 6.304622 6.724218 -6.793015 2.247242 2.464622 -3.078154 1.055821 -1.512824 -7.690313 16.876078 4.417383 -14.132218 12.705591 -11.262137 6.645980 5.588819 -52.345892 -13.965723 3.240543 -5.863459 -38.752569 7.285617 -1.777101 -22.209090 -28.297927 16.950304 -14.328267 3.680379 59.015994 -10.463272 -1.124694 -7.659572 26.217992 -8.551267 9.858438 11.340880 -19.459845 
6.425223 -20.248287 88.072815 -150.396156 3.679143 87.476247 22.102360 1.916325 -15.972313 -14.444368 -22.416995 39.045977 -7.792537 -7.557708 -22.712107 nan nan nan -26.921855 -12.946607 -6.234647 -0.117984 3.849066 13.227155 16.169113 0.298830 13.014829 nan nan nan -1.197196 3.139735 6.769123 6.577385 -6.595218 1.991563 2.546697 -3.233580 1.120284 -1.630910 -7.593443 16.825291 4.446418 -14.141948 12.708785 -11.324467 6.961921 5.554726 -52.366246 -13.458455 2.630323 -5.753980 -38.816112 7.312800 -2.268401 -21.924954 -27.943354 16.965775 -14.568917 3.560302 59.004325 -10.678696 -1.733851 -7.481304 26.213370 -8.157568 10.692384 10.992877 -18.995304 
7.402384 -19.543123 87.905472 -150.569341 3.382673 87.095600 22.567653 2.244677 -14.917391 -14.065770 -23.040017 38.119047 -8.590524 -7.395659 -22.626743 nan nan nan -26.956357 -13.297010 -6.588014 -0.015390 3.992247 14.708509 16.677433 0.570066 12.298679 nan nan nan -1.429428 3.023691 7.288213 6.460130 -6.489971 1.896171 2.568063 -3.271950 1.173560 -1.485359 -7.219480 16.674984 4.317712 -14.479315 12.836939 -11.279179 7.228738 5.526659 -52.134076 -13.056490 2.360713 -5.934515 -38.626345 7.107154 -2.217928 -21.880225 -28.295614 17.163888 -14.790182 3.276904 58.820478 -10.841899 -1.999249 -7.130323 26.208718 -7.787307 10.333663 10.758566 -18.352643 
8.398059 -18.832798 87.754524 -150.722804 3.027206 86.869003 22.922583 2.340771 -14.031671 -13.575399 -23.581994 37.228798 -9.233965 -7.088764 -22.434841 nan nan nan -27.041777 -13.497386 -7.069694 0.034348 3.871775 16.507549 17.754324 0.792367 11.193622 nan nan nan -1.720745 2.893701 7.546714 6.318291 -6.369632 1.886997 2.535577 -3.282036 1.266907 -1.233940 -6.724173 16.463984 4.128617 -14.848282 13.024520 -11.172675 7.584179 5.412541 -51.988774 -12.688893 2.207454 -6.033230 -38.422190 6.905983 -2.062757 -21.799947 -28.558312 17.163467 -14.894811 3.199609 58.965886 -10.911412 -2.111008 -6.881459 26.019984 -7.811000 9.545846 10.690490 -17.830605 
